<svg width="32" height="32" viewBox="0 0 32 32" fill="none" xmlns="http://www.w3.org/2000/svg">
<mask id="mask0_704_8" style="mask-type:luminance" maskUnits="userSpaceOnUse" x="0" y="0" width="32" height="32">
<path d="M28 0H4C1.79086 0 0 1.79086 0 4V28C0 30.2091 1.79086 32 4 32H28C30.2091 32 32 30.2091 32 28V4C32 1.79086 30.2091 0 28 0Z" fill="white"/>
</mask>
<g mask="url(#mask0_704_8)">
<path d="M0 0H32V32H0V0Z" fill="#FF3333"/>
<path d="M4.99001 16.393V7.71701C4.99001 7.61101 5.07001 7.53101 5.17701 7.53101H9.76701C9.87301 7.53101 9.95301 7.61101 9.95301 7.71701V16.393C9.95301 16.499 9.87301 16.579 9.76701 16.579H5.17701C5.15235 16.5797 5.12781 16.5754 5.10488 16.5663C5.08194 16.5572 5.0611 16.5435 5.04361 16.5261C5.02612 16.5087 5.01235 16.4879 5.00314 16.4651C4.99392 16.4422 4.98945 16.4177 4.99001 16.393ZM13.107 16.393V7.71701C13.107 7.61101 13.187 7.53101 13.293 7.53101H17.883C17.99 7.53101 18.07 7.61101 18.07 7.71701V16.393C18.07 16.499 17.99 16.579 17.884 16.579H13.293C13.2684 16.5796 13.244 16.5751 13.2212 16.566C13.1984 16.5568 13.1776 16.5431 13.1603 16.5257C13.1429 16.5084 13.1292 16.4876 13.1201 16.4648C13.1109 16.442 13.1065 16.4176 13.107 16.393ZM26.825 7.53101C26.931 7.53101 27.011 7.61101 27.011 7.71701V14.57C27.0074 15.2417 26.9629 15.9126 26.878 16.579C26.5395 18.9947 25.6011 21.287 24.1484 23.2465C22.6957 25.2059 20.775 26.7701 18.562 27.796C18.469 27.836 18.349 27.796 18.309 27.702L16.433 23.512C16.393 23.418 16.433 23.312 16.526 23.258C18.1775 22.4812 19.5737 21.2504 20.5516 19.7095C21.5294 18.1685 22.0484 16.381 22.048 14.556V7.71701C22.048 7.61101 22.128 7.53101 22.234 7.53101H26.824H26.825Z" fill="white"/>
</g>
</svg>
