<svg width="200" height="200" viewBox="0 0 200 200" fill="none" xmlns="http://www.w3.org/2000/svg">
<path d="M69.0875 133.333H91.6667C92.2192 133.333 92.7491 133.553 93.1398 133.944C93.5305 134.334 93.75 134.864 93.75 135.417V143.75C93.75 144.303 93.5305 144.832 93.1398 145.223C92.7491 145.614 92.2192 145.833 91.6667 145.833H37.5C35.2899 145.833 33.1702 144.955 31.6074 143.393C30.0446 141.83 29.1667 139.71 29.1667 137.5V37.5C29.1667 35.2899 30.0446 33.1702 31.6074 31.6074C33.1702 30.0446 35.2899 29.1667 37.5 29.1667H162.5C164.71 29.1667 166.83 30.0446 168.393 31.6074C169.955 33.1702 170.833 35.2899 170.833 37.5V137.5C170.833 139.71 169.955 141.83 168.393 143.393C166.83 144.955 164.71 145.833 162.5 145.833H108.333C107.781 145.833 107.251 145.614 106.86 145.223C106.469 144.832 106.25 144.303 106.25 143.75V135.417C106.25 134.864 106.469 134.334 106.86 133.944C107.251 133.553 107.781 133.333 108.333 133.333H130.912C128.422 127.176 124.149 121.902 118.641 118.189C113.133 114.476 106.642 112.492 100 112.492C93.3576 112.492 86.8666 114.476 81.359 118.189C75.8515 121.902 71.5784 127.176 69.0875 133.333ZM41.6667 133.333H55.8917C57.6621 127.112 60.7263 121.334 64.8836 116.378C69.0409 111.423 74.1977 107.4 80.0167 104.575C75.7605 100.57 72.8056 95.3789 71.5351 89.6745C70.2646 83.9701 70.737 78.0156 72.8911 72.583C75.0453 67.1503 78.7817 62.49 83.6162 59.2063C88.4506 55.9226 94.16 54.167 100.004 54.167C105.848 54.167 111.558 55.9226 116.392 59.2063C121.227 62.49 124.963 67.1503 127.117 72.583C129.271 78.0156 129.744 83.9701 128.473 89.6745C127.203 95.3789 124.248 100.57 119.992 104.575C125.808 107.402 130.963 111.425 135.118 116.38C139.273 121.336 142.335 127.113 144.104 133.333H158.333V41.6667H41.6667V133.333ZM100 100C104.42 100 108.66 98.244 111.785 95.1184C114.911 91.9928 116.667 87.7536 116.667 83.3333C116.667 78.9131 114.911 74.6738 111.785 71.5482C108.66 68.4226 104.42 66.6667 100 66.6667C95.5797 66.6667 91.3405 68.4226 88.2149 71.5482C85.0893 74.6738 83.3333 78.9131 83.3333 83.3333C83.3333 87.7536 85.0893 91.9928 88.2149 95.1184C91.3405 98.244 95.5797 100 100 100ZM168.75 170.833C169.303 170.833 169.832 170.614 170.223 170.223C170.614 169.832 170.833 169.303 170.833 168.75V160.417C170.833 159.864 170.614 159.334 170.223 158.944C169.832 158.553 169.303 158.333 168.75 158.333H31.25C30.6975 158.333 30.1676 158.553 29.7769 158.944C29.3862 159.334 29.1667 159.864 29.1667 160.417V168.75C29.1667 169.303 29.3862 169.832 29.7769 170.223C30.1676 170.614 30.6975 170.833 31.25 170.833H168.75Z" fill="#6E73EB"/>
</svg>
